<?xml version="1.0" encoding="UTF-8" standalone="no"?>
<svg width="24px" height="24px" viewBox="0 0 24 24" version="1.1" xmlns="http://www.w3.org/2000/svg" xmlns:xlink="http://www.w3.org/1999/xlink" xmlns:sketch="http://www.bohemiancoding.com/sketch/ns">
    <!-- Generator: Sketch 3.5.2 (25235) - http://www.bohemiancoding.com/sketch -->
    <title>ic_verified_user</title>
    <desc>Created with Sketch.</desc>
    <defs></defs>
    <g id="Page-1" stroke="none" stroke-width="1" fill="none" fill-rule="evenodd" sketch:type="MSPage">
        <g sketch:type="MSLayerGroup" transform="translate(3.000000, 3.000000)">
            <path d="M9.00007563,0.756378151 C13.545605,0.756378151 17.2437731,4.45454622 17.2437731,9.00007563 C17.2437731,13.545605 13.545605,17.2437731 9.00007563,17.2437731 C4.45454622,17.2437731 0.756378151,13.545605 0.756378151,9.00007563 C0.756378151,4.45454622 4.45454622,0.756378151 9.00007563,0.756378151" id="Path" fill="#FFFFFF" sketch:type="MSShapeGroup"></path>
            <path d="M9.00007563,7.56302521e-05 C4.0295042,7.56302521e-05 7.56302521e-05,4.0295042 7.56302521e-05,9.00007563 C7.56302521e-05,13.9706471 4.0295042,18.0000756 9.00007563,18.0000756 C13.9704958,18.0000756 18.0000756,13.9706471 18.0000756,9.00007563 C18.0000756,4.0295042 13.9704958,7.56302521e-05 9.00007563,7.56302521e-05 M9.00007563,0.756378151 C13.545605,0.756378151 17.2437731,4.45454622 17.2437731,9.00007563 C17.2437731,13.545605 13.545605,17.2437731 9.00007563,17.2437731 C4.45454622,17.2437731 0.756378151,13.545605 0.756378151,9.00007563 C0.756378151,4.45454622 4.45454622,0.756378151 9.00007563,0.756378151" id="Fill-1" fill="#0D7AE7" sketch:type="MSShapeGroup"></path>
            <path d="M4.2227395,7.62897479 L7.21497479,10.5106387 L13.446605,4.70768067 L15.1134958,6.318 L7.21013445,13.6538319 L2.58413445,9.28028571 L4.2227395,7.62897479 Z" id="Fill-4" fill="#0D7AEB" sketch:type="MSShapeGroup"></path>
        </g>
    </g>
</svg>